HIERARCHY
ROOT Hips
{
	OFFSET 0.000000 0.000000 0.000000
	CHANNELS 6 Xposition Yposition Zposition Xrotation Yrotation Zrotation
	JOINT LeftUpLeg_virtual
	{
		OFFSET 0.000000 0.000000 0.000000
		CHANNELS 3 Xrotation Yrotation Zrotation
		JOINT LeftUpLeg
		{
			OFFSET 10.205400 -3.823500 0.155100
			CHANNELS 3 Xrotation Yrotation Zrotation
			JOINT LeftLeg
			{
				OFFSET 0.708757 -12.982077 0.567790
				CHANNELS 3 Xrotation Yrotation Zrotation
				JOINT LeftFoot
				{
					OFFSET -0.708756 -10.717838 -2.184338
					CHANNELS 3 Xrotation Yrotation Zrotation
					JOINT LeftToeBase
					{
						OFFSET 0.108149 -7.191104 7.560241
						CHANNELS 3 Xrotation Yrotation Zrotation
						JOINT LeftToe_End
						{
							OFFSET 0.070230 0.081724 4.490308
							CHANNELS 3 Xrotation Yrotation Zrotation
							End Site
							{
								OFFSET 0 0 0
							}
						}
					}
				}
			}
		}
	}
	JOINT RightUpLeg_virtual
	{
		OFFSET 0.000000 0.000000 0.000000
		CHANNELS 3 Xrotation Yrotation Zrotation
		JOINT RightUpLeg
		{
			OFFSET -10.205400 -3.823500 0.005500
			CHANNELS 3 Xrotation Yrotation Zrotation
			JOINT RightLeg
			{
				OFFSET -0.708756 -12.982134 0.610632
				CHANNELS 3 Xrotation Yrotation Zrotation
				JOINT RightFoot
				{
					OFFSET 0.708754 -10.717769 -1.945823
					CHANNELS 3 Xrotation Yrotation Zrotation
					JOINT RightToeBase
					{
						OFFSET -0.108140 -7.191069 7.372968
						CHANNELS 3 Xrotation Yrotation Zrotation
						JOINT RightToe_End
						{
							OFFSET -0.070227 0.081735 4.479403
							CHANNELS 3 Xrotation Yrotation Zrotation
							End Site
							{
								OFFSET 0 0 0
							}
						}
					}
				}
			}
		}
	}
	JOINT Spine_virtual
	{
		OFFSET 0.000000 0.000000 0.000000
		CHANNELS 3 Xrotation Yrotation Zrotation
		JOINT Spine
		{
			OFFSET 0.000000 6.876099 0.125700
			CHANNELS 3 Xrotation Yrotation Zrotation
			JOINT Spine1
			{
				OFFSET 0.000000 5.730043 0.104720
				CHANNELS 3 Xrotation Yrotation Zrotation
				JOINT Spine1_split
				{
					OFFSET 0.000000 5.730043 0.104720
					CHANNELS 3 Xrotation Yrotation Zrotation
					JOINT Spine2
					{
						OFFSET 0.000000 5.730043 0.104720
						CHANNELS 3 Xrotation Yrotation Zrotation
						JOINT Neck_virtual
						{
							OFFSET 0.000000 0.000000 0.000000
							CHANNELS 3 Xrotation Yrotation Zrotation
							JOINT Neck
							{
								OFFSET 0.000000 10.314075 0.188496
								CHANNELS 3 Xrotation Yrotation Zrotation
								JOINT Head
								{
									OFFSET 0.000000 7.643700 -2.377400
									CHANNELS 3 Xrotation Yrotation Zrotation
									JOINT HeadTop_End
									{
										OFFSET 0.000000 43.788605 -13.619600
										CHANNELS 3 Xrotation Yrotation Zrotation
										End Site
										{
											OFFSET 0 0 0
										}
									}
								}
							}
						}
						JOINT LeftShoulder_virtual
						{
							OFFSET 0.000000 0.000000 0.000000
							CHANNELS 3 Xrotation Yrotation Zrotation
							JOINT LeftShoulder
							{
								OFFSET 2.196100 4.412489 0.087492
								CHANNELS 3 Xrotation Yrotation Zrotation
								JOINT LeftShoulder_split
								{
									OFFSET 2.196100 4.412489 0.087492
									CHANNELS 3 Xrotation Yrotation Zrotation
									JOINT LeftArm
									{
										OFFSET 8.771219 -2.981674 -0.026999
										CHANNELS 3 Xrotation Yrotation Zrotation
										JOINT LeftForeArm
										{
											OFFSET 8.512804 0.000000 -0.000000
											CHANNELS 3 Xrotation Yrotation Zrotation
											JOINT LeftHand
											{
												OFFSET 18.484802 0.000000 -0.000000
												CHANNELS 3 Xrotation Yrotation Zrotation
												End Site
												{
													OFFSET 0 0 0
												}
											}
										}
									}
								}
							}
						}
						JOINT RightShoulder_virtual
						{
							OFFSET 0.000000 0.000000 0.000000
							CHANNELS 3 Xrotation Yrotation Zrotation
							JOINT RightShoulder
							{
								OFFSET -2.196100 4.412496 0.070690
								CHANNELS 3 Xrotation Yrotation Zrotation
								JOINT RightShoulder_split
								{
									OFFSET -2.196100 4.412496 0.070690
									CHANNELS 3 Xrotation Yrotation Zrotation
									JOINT RightArm
									{
										OFFSET -8.771282 -2.981682 -0.094208
										CHANNELS 3 Xrotation Yrotation Zrotation
										JOINT RightForeArm
										{
											OFFSET -8.494598 0.000000 0.000000
											CHANNELS 3 Xrotation Yrotation Zrotation
											JOINT RightHand
											{
												OFFSET -18.483803 0.000000 0.000001
												CHANNELS 3 Xrotation Yrotation Zrotation
												End Site
												{
													OFFSET 0 0 0
												}
											}
										}
									}
								}
							}
						}
					}
				}
			}
		}
	}
}
MOTION
Frames: 5
Frame Time: 0.03333333
68.934799 11.775613 -16.537882 0.000000 0.000000 0.000000 -71.181363 12.464945 67.626912 -106.476522 2.116956 -47.160523 135.805485 46.671912 -46.001095 8.715389 56.279400 1.134490 9.551387 12.732079 -35.333368 0.000000 0.000000 0.000000 -65.129542 1.819638 55.395676 -127.068853 10.532381 13.813026 100.190515 -9.943348 16.292535 19.706129 17.535647 -9.106157 10.188838 3.906907 -28.532868 0.000000 0.000000 0.000000 -61.231758 10.930551 54.406978 -7.335041 -4.100780 -11.037437 12.270519 15.878472 2.056942 -0.537521 0.117038 0.385354 0.000000 0.000000 0.000000 5.820452 22.175913 -0.965131 42.267676 17.638673 16.341680 155.080401 -31.385433 91.188934 0.000000 0.000000 0.000000 29.386059 15.710881 5.369501 4.213300 40.879591 -17.349449 -5.594286 -1.268779 10.243507 86.425846 -51.961173 115.441262 14.857528 -27.496340 1.374170 0.000000 0.000000 0.000000 13.213127 15.231416 -0.163478 -22.229411 27.879403 27.927054 26.987592 -42.036532 23.532136 -12.716245 40.641224 3.794780 -126.274994 70.365920 114.815562 0.000000 0.000000 0.000000 
70.473961 11.395151 -16.480761 0.000000 0.000000 0.000000 -69.129048 11.251833 58.611110 -93.227984 9.905525 -47.659294 128.789664 53.464142 -32.247731 12.970406 43.173151 0.626304 -17.696800 10.986386 -10.948170 0.000000 0.000000 0.000000 -65.820901 6.558969 53.884821 -127.140474 10.502703 18.754315 107.477097 -11.539827 13.245789 31.274388 11.237046 -14.327944 -1.321502 14.076342 -24.987054 0.000000 0.000000 0.000000 -66.484522 19.012088 50.604042 -2.475399 -6.963395 -9.433032 8.865148 17.740843 3.618009 -0.324857 -0.970252 0.825251 0.000000 0.000000 0.000000 7.349888 23.431247 0.340313 37.912799 12.453074 17.805707 161.307567 -37.214907 103.772157 0.000000 0.000000 0.000000 24.240806 17.265081 5.574120 2.818455 40.018010 -19.174067 -3.941223 -1.407748 5.538121 81.922006 -48.958089 102.865886 5.942460 -22.781944 -4.574538 0.000000 0.000000 0.000000 9.310098 16.392889 1.144927 -17.876509 19.202228 22.981333 21.245525 -35.040523 20.139735 3.040777 25.721893 11.548152 -129.289962 74.797716 120.865730 0.000000 0.000000 0.000000 
71.810867 10.776596 -16.838991 0.000000 0.000000 0.000000 -65.863098 18.014667 49.447629 -77.444653 20.723200 -46.647392 118.359023 61.146005 -18.085841 -3.205761 29.659366 16.137087 -28.977924 1.444864 5.227717 0.000000 0.000000 0.000000 -63.253180 17.978260 50.454645 -123.758192 9.821591 23.845789 107.805766 -15.582962 9.682029 35.858425 4.567496 -15.257551 -2.643013 20.819912 -24.417351 0.000000 0.000000 0.000000 -65.447023 27.019539 44.185781 0.366144 -7.534775 -6.421065 6.922078 18.678083 3.999133 -0.062640 -1.501598 0.855537 0.000000 0.000000 0.000000 10.129936 23.729211 0.344038 34.909893 7.551783 17.107587 170.206087 -41.013913 120.442285 0.000000 0.000000 0.000000 20.880382 18.257353 5.000049 2.151960 36.840340 -21.748968 -2.820298 -2.987772 -0.635247 75.035352 -44.930702 89.554435 -1.030644 -24.452899 -8.478050 0.000000 0.000000 0.000000 7.257448 16.830670 1.564693 -14.726048 11.618455 20.799079 12.337978 -26.001977 15.375980 14.040921 15.047726 19.208853 -79.832911 81.101584 74.087697 0.000000 0.000000 0.000000 
73.221382 10.014051 -17.336618 0.000000 0.000000 0.000000 -59.984552 29.043477 39.482332 -70.576782 31.578983 -41.963207 110.650840 62.549711 -3.635478 -11.902510 17.547552 22.643030 -18.046610 -4.115234 12.478363 0.000000 0.000000 0.000000 -58.120627 32.469589 44.033820 -117.072584 8.446950 29.062752 102.474742 -22.786636 6.077403 33.382365 -4.455496 -14.841110 8.797727 23.278034 -29.096053 0.000000 0.000000 0.000000 -57.891830 34.116399 34.420011 0.709720 -6.169946 -2.228205 6.392990 18.756242 3.113093 0.083010 -1.370869 0.605927 0.000000 0.000000 0.000000 12.951185 23.154874 -0.799465 33.010369 3.313588 14.673104 179.213249 -41.772146 138.275923 0.000000 0.000000 0.000000 18.763348 18.783203 3.650682 2.098305 31.750073 -24.243712 -1.664191 -5.162410 -5.933489 67.615806 -39.814535 76.261658 -5.038205 -30.086444 -10.746368 0.000000 0.000000 0.000000 6.792029 16.719379 0.986327 -12.190937 5.574258 20.067750 4.098610 -16.712445 9.198091 18.498027 8.076125 25.203770 -20.871617 71.196389 17.398157 0.000000 0.000000 0.000000 
74.600754 9.307476 -17.752676 0.000000 0.000000 0.000000 -49.596722 39.168396 27.047745 -78.966392 40.771609 -27.370002 113.600417 54.757920 2.264786 -7.476339 10.194878 21.018261 -10.709900 -7.656219 19.007235 0.000000 0.000000 0.000000 -49.218268 43.529520 31.909162 -108.003036 7.334606 34.183140 92.444978 -31.032131 1.458817 26.936004 -16.171745 -14.058027 23.603730 21.533654 -35.692533 0.000000 0.000000 0.000000 -45.461613 39.045705 22.029257 -0.137454 -3.629036 2.186208 6.858809 18.009117 1.289243 0.136018 -1.106301 0.396672 0.000000 0.000000 0.000000 14.761900 21.976600 -2.513297 31.551622 -0.001910 11.276525 -174.643702 -40.565904 153.662632 0.000000 0.000000 0.000000 17.576906 18.513638 1.546466 2.109075 24.907863 -25.453887 0.677003 -5.390482 -8.813709 60.287600 -35.304787 64.101298 -4.431113 -33.957201 -10.198177 0.000000 0.000000 0.000000 7.089785 16.194717 -0.096995 -9.948297 0.871789 19.976326 -1.638557 -10.893820 4.299605 17.004716 2.915476 29.792312 -10.983409 57.924574 9.419428 0.000000 0.000000 0.000000 
